<?xml version="1.0" encoding="iso-8859-1"?>
<!-- Generator: Adobe Illustrator 16.0.0, SVG Export Plug-In . SVG Version: 6.00 Build 0)  -->
<!DOCTYPE svg PUBLIC "-//W3C//DTD SVG 1.1//EN" "http://www.w3.org/Graphics/SVG/1.1/DTD/svg11.dtd">
<svg version="1.1" id="Capa_1" xmlns="http://www.w3.org/2000/svg" xmlns:xlink="http://www.w3.org/1999/xlink" x="0px" y="0px"
	 width="81.979px" height="81.979px" viewBox="0 0 81.979 81.979" style="enable-background:new 0 0 81.979 81.979;"
	 xml:space="preserve">
<g>
	<path d="M76.058,64.916c-0.4,0.404-0.928,0.604-1.453,0.604s-1.053-0.203-1.453-0.604L46.928,38.693L20.705,64.916
		c-0.802,0.805-2.103,0.803-2.906,0c-0.803-0.801-0.803-2.102,0-2.904l19.7-19.703l-5.605-6.035c-3.321,3.697-3.849,7.05-3.88,7.277
		c-0.108,0.772-0.643,1.422-1.379,1.672c-0.22,0.071-0.444,0.108-0.667,0.108c-0.53,0-1.048-0.203-1.438-0.588
		c-11.881-11.76-9.085-24.217-8.683-25.75l-2.43-2.615c-0.677-0.729-0.634-1.865,0.094-2.541c0.728-0.677,1.866-0.635,2.542,0.094
		l3.048,3.281c0.607-0.035,1.386-0.064,2.292-0.064c5.819,0,16.419,1.187,22.058,9.148c0.367,0.52,0.476,1.182,0.287,1.791
		c-0.186,0.607-0.643,1.095-1.24,1.32c-3.388,1.275-5.982,2.816-7.979,4.404l5.525,5.951l5.432-5.432
		c0.803-0.803,2.104-0.803,2.907,0l9.747,9.748v-5.002c0-1.135,0.921-2.055,2.056-2.055c1.136,0,2.056,0.92,2.056,2.055v9.113
		l13.817,13.816C76.862,62.809,76.862,64.111,76.058,64.916z M70.178,64.365L70.178,64.365L48.383,42.57
		c-0.386-0.385-0.909-0.602-1.453-0.602c-0.545,0-1.067,0.217-1.453,0.602L23.681,64.365c-0.291,0.291-0.487,0.662-0.565,1.064
		c-0.061,0.312-0.091,0.633-0.091,0.941V77.01c0,2.738,2.229,4.969,4.969,4.969h10.639c1.376,0,2.706-0.582,3.645-1.596
		c0.854-0.926,1.324-2.121,1.324-3.373v-7.812c0-1.896,1.452-3.48,3.329-3.658c1.877,0.178,3.33,1.762,3.33,3.658v7.812
		c0,1.252,0.471,2.447,1.324,3.372c0.938,1.015,2.268,1.597,3.645,1.597h10.639c2.739,0,4.969-2.229,4.969-4.969V66.373
		c0-0.312-0.028-0.629-0.09-0.943C70.665,65.027,70.469,64.656,70.178,64.365z M22.395,49.293c0.756-0.158,1.359-0.727,1.562-1.471
		c0.204-0.744-0.027-1.539-0.597-2.059l-0.164-0.146c-2.251-1.971-7.6-7.725-8.676-18.594c-0.09-0.914-0.775-1.656-1.68-1.82
		c-0.905-0.164-1.808,0.295-2.211,1.119c-0.353,0.723-8.518,17.797,3.061,29.258c0.396,0.391,0.924,0.605,1.46,0.605
		c0.248,0,0.496-0.047,0.734-0.141c0.758-0.297,1.268-1,1.304-1.811C17.215,53.836,17.602,50.295,22.395,49.293z M25.387,16.158
		c11.223,1.109,15.219,5.233,17.862,7.959c0.35,0.359,0.67,0.689,0.972,0.979c0.389,0.373,0.899,0.572,1.423,0.572
		c0.208,0,0.419-0.031,0.624-0.098c0.718-0.229,1.253-0.83,1.396-1.57c0.756-3.943,5.162-5.189,5.342-5.238
		c0.709-0.186,1.268-0.736,1.462-1.445c0.192-0.709-0.007-1.467-0.521-1.988c-4.043-4.084-9.25-6.152-15.483-6.152
		c-7.378,0-13.519,2.965-13.776,3.09c-0.825,0.404-1.281,1.307-1.118,2.211C23.729,15.381,24.473,16.068,25.387,16.158z
		 M12.106,12.371c1.223-1.223,1.224-3.205,0-4.43C10.884,6.718,5.317,5.58,5.317,5.58s1.139,5.566,2.361,6.791
		C8.901,13.594,10.884,13.594,12.106,12.371z M22.575,9.373c1.222-1.223,1.223-3.205,0-4.428c-1.225-1.223-6.791-2.361-6.791-2.361
		s1.14,5.564,2.362,6.789C19.369,10.596,21.35,10.596,22.575,9.373z M32.839,6.211c1.118-1.119,1.118-2.934,0-4.051
		C31.721,1.041,26.628,0,26.628,0s1.04,5.092,2.16,6.211C29.908,7.33,31.721,7.33,32.839,6.211z"/>
</g>
<g>
</g>
<g>
</g>
<g>
</g>
<g>
</g>
<g>
</g>
<g>
</g>
<g>
</g>
<g>
</g>
<g>
</g>
<g>
</g>
<g>
</g>
<g>
</g>
<g>
</g>
<g>
</g>
<g>
</g>
</svg>
